<svg xmlns="http://www.w3.org/2000/svg" viewBox="0 0 48.97 42.83"><defs><style>.cls-1{fill:#ebaaff;}</style></defs><title>favicon</title><g id="Capa_2" data-name="Capa 2"><g id="Capa_26" data-name="Capa 26"><path class="cls-1" d="M21.6,42.83a21.46,21.46,0,0,1-9.35-2.28,20.15,20.15,0,0,1-8.9-7.76A19.3,19.3,0,0,1,.69,24.67,30.78,30.78,0,0,1,1,16,27.17,27.17,0,0,0,2.35,27.59c2.19,6.2,6.74,10.33,13.51,12.28a18.93,18.93,0,0,0,5.11.75,16.68,16.68,0,0,0,10.49-3.81,17.39,17.39,0,0,0,6.72-11.33C38.87,21,37.36,17,33.7,13.73a16,16,0,0,0-4.12-2.65l.09-.21c.25-.64.5-1.28.77-1.9h0A11.32,11.32,0,0,1,36,11.75a15.79,15.79,0,0,1,5,10c1,8.09-4.25,16.57-12.15,19.71A19.5,19.5,0,0,1,21.6,42.83Z" transform="translate(0 -0.53)"/><path class="cls-1" d="M30.76,9.58a10.64,10.64,0,0,1,4.84,2.56,15.31,15.31,0,0,1,4.82,9.63c.95,7.87-4.13,16.1-11.82,19.15a18.84,18.84,0,0,1-7,1.38,21,21,0,0,1-9.12-2.23A19.71,19.71,0,0,1,3.8,32.52a18.23,18.23,0,0,1-2.16-5.38q.09.32.21.63C4.1,34.14,8.77,38.38,15.72,40.38a19.12,19.12,0,0,0,5.25.77,17.24,17.24,0,0,0,10.82-3.92,17.91,17.91,0,0,0,6.92-11.67c.71-4.71-.85-8.83-4.65-12.23a16.52,16.52,0,0,0-3.8-2.52c.17-.42.33-.83.5-1.23M3.2,7l-.06.26.08-.18s0,0,.06-.07Zm-.06.26a35.59,35.59,0,0,0-3,17.48,19.9,19.9,0,0,0,2.73,8.35A20.86,20.86,0,0,0,12,41a21.91,21.91,0,0,0,9.58,2.34A19.84,19.84,0,0,0,29,41.91c7.64-3,13.56-11.36,12.48-20.26a16.22,16.22,0,0,0-5.15-10.29,11.77,11.77,0,0,0-5.77-2.92h-.1c-.16,0-.38.06-.42.15-.39.9-.75,1.83-1.12,2.76l.37.19a15.16,15.16,0,0,1,4.07,2.6c3.37,3,5,6.73,4.31,11.27a16.87,16.87,0,0,1-6.53,11A16.12,16.12,0,0,1,21,40.08a18.14,18.14,0,0,1-5-.72C9.69,37.54,5.09,33.74,2.85,27.41a28.11,28.11,0,0,1-1-13.68c.32-2.18.85-4.33,1.29-6.49Z" transform="translate(0 -0.53)"/><path class="cls-1" d="M12.92,32a13.53,13.53,0,0,1-5.31-7.29,16,16,0,0,1,1-11.94A19.09,19.09,0,0,1,23,1.42a19.43,19.43,0,0,1,3.71-.36,21.58,21.58,0,0,1,9.44,2.31A20.36,20.36,0,0,1,47.23,16.48,20,20,0,0,0,31.87,3.9a24.67,24.67,0,0,0-5-.54,19,19,0,0,0-2.41.15,15.28,15.28,0,0,0-10.8,6.37A21.51,21.51,0,0,0,10,18.41a1.22,1.22,0,0,0,.57,1.39l2.26,1.58c1.12.78,2.25,1.57,3.38,2.34a.69.69,0,0,1,.17.15h0a1.21,1.21,0,0,1-.07.21C15.18,26.69,14,29.34,12.92,32ZM8.42,21.07l0,.3A12.8,12.8,0,0,0,11.75,29l.55.63.79-1.83c.38-.88.74-1.71,1.12-2.53a1.05,1.05,0,0,0-.41-1.46c-.93-.63-1.84-1.27-2.75-1.91l-1.23-.86-.31-.19-.44-.27Z" transform="translate(0 -0.53)"/><path class="cls-1" d="M26.7,1.59h0a21,21,0,0,1,9.21,2.26,21,21,0,0,1,5.43,3.71A21.72,21.72,0,0,0,32,3.38a25.58,25.58,0,0,0-5.1-.55A20,20,0,0,0,24.4,3,15.78,15.78,0,0,0,13.23,9.57,21.88,21.88,0,0,0,9.51,18.3a1.76,1.76,0,0,0,.79,1.94c.76.52,1.51,1.05,2.26,1.58L15.77,24c-1,2.35-2.08,4.74-3.08,7.09A13.12,13.12,0,0,1,8.11,24.5a15.53,15.53,0,0,1,1-11.56,18.57,18.57,0,0,1,14-11,19,19,0,0,1,3.6-.35m-14.25,29,.67-1.52L13.59,28c.37-.87.73-1.69,1.1-2.5a1.56,1.56,0,0,0-.6-2.12l-2.73-1.9-1.23-.86-.35-.22-.12-.08L9.05,20l-.58.42-.08.07-.05,0-.48.35,0,.6a13.37,13.37,0,0,0,3.44,8l1.1,1.24M26.7.53A20,20,0,0,0,22.89.9,19.55,19.55,0,0,0,8.14,12.5a16.61,16.61,0,0,0-1,12.32,14,14,0,0,0,5.56,7.6.75.75,0,0,0,.37.16c.15,0,.26-.12.37-.39q1.68-4,3.42-7.89a.69.69,0,0,0-.28-1c-1.89-1.28-3.75-2.61-5.63-3.91a.71.71,0,0,1-.36-.85,21,21,0,0,1,3.54-8.32A14.73,14.73,0,0,1,24.53,4a18.37,18.37,0,0,1,2.34-.14,24.48,24.48,0,0,1,4.89.53,19.48,19.48,0,0,1,15,12.38,29.65,29.65,0,0,1,2.1,10.64,30.64,30.64,0,0,0-.6-9C46.73,11.41,43,6.08,36.38,2.89A22.1,22.1,0,0,0,26.7.53ZM12.14,28.66A12.3,12.3,0,0,1,9,21.32l.13-.09.42.26c1.32.92,2.64,1.86,4,2.77a.54.54,0,0,1,.23.8c-.53,1.15-1,2.32-1.59,3.6Z" transform="translate(0 -0.53)"/><path class="cls-1" d="M22.39,35.58c-.43,0-.87,0-1.31-.06s-1.13-.15-1.73-.24l-.21,0,3-6.95.94.65c1,.72,2.09,1.43,3.12,2.16a1.33,1.33,0,0,0,.74.28,1.21,1.21,0,0,0,.83-.41A11.06,11.06,0,0,0,31,25.15a7.54,7.54,0,0,0-2.79-7.42,12.24,12.24,0,0,0-1-.75l-.12-.09.17-.4.7-1.63a7.67,7.67,0,0,1,3.78,2.74c2.08,2.66,2.56,5.71,1.46,9.32A11.9,11.9,0,0,1,28,34.09,10.69,10.69,0,0,1,22.39,35.58Zm-1.11-1.53.76.05h.52a8.7,8.7,0,0,0,3.1-.58l1-.36L22.8,30.53Z" transform="translate(0 -0.53)"/><path class="cls-1" d="M28.26,15.53a7.3,7.3,0,0,1,3.07,2.39c2,2.52,2.4,5.41,1.36,8.85a11.36,11.36,0,0,1-5,6.86,10,10,0,0,1-5.29,1.42q-.62,0-1.26-.06c-.4,0-.8-.1-1.23-.16l2.49-5.73.4.28c1.05.72,2.09,1.43,3.13,2.16a1.81,1.81,0,0,0,1,.38,1.66,1.66,0,0,0,1.21-.57,11.56,11.56,0,0,0,3.34-6.11,8.07,8.07,0,0,0-3-7.92c-.26-.22-.53-.42-.8-.61l.52-1.18m-5.7,19.11A9.11,9.11,0,0,0,25.85,34l1.92-.7-1.69-1.17-.84-.58-1.61-1.11-1.07-.73-.51,1.19-.95,2.23-.6,1.39,1.51.09h.55m5.27-20.35c-.12,0-.22.05-.3.23-.36.85-.73,1.7-1.1,2.55.49.36,1,.68,1.42,1.06a7,7,0,0,1,2.61,6.93,10.49,10.49,0,0,1-3.06,5.55.61.61,0,0,1-.44.24.79.79,0,0,1-.43-.17c-1.35-1-2.72-1.88-4.08-2.82l-.53-.34c-1.18,2.7-2.33,5.35-3.54,8.16,1,.13,1.8.28,2.65.37.46,0,.91.06,1.36.06a11.11,11.11,0,0,0,5.83-1.57,12.45,12.45,0,0,0,5.49-7.46,10.25,10.25,0,0,0-1.55-9.81,8.27,8.27,0,0,0-4-2.92,1.22,1.22,0,0,0-.3-.06ZM22.56,33.58h-.49l1-2.23L25.48,33a8.3,8.3,0,0,1-2.92.55Z" transform="translate(0 -0.53)"/><path class="cls-1" d="M18.61,17.49c-.82-.55-1.64-1.11-2.44-1.69a.23.23,0,0,1-.07-.09,10.56,10.56,0,0,1,5.66-6.58A4.07,4.07,0,0,1,23,8.76l-3.9,9Z" transform="translate(0 -0.53)"/><path class="cls-1" d="M22,9.6l-1.18,2.72-2,4.66c-.69-.46-1.4-.94-2.08-1.43A9.87,9.87,0,0,1,22,9.62l0,0m1.2-1.39a4,4,0,0,0-1.67.44,11.16,11.16,0,0,0-6,7c-.05.15.13.48.3.6,1,.7,2,1.36,3,2,.14.09.29.15.47.25,1.5-3.46,3-6.85,4.44-10.26a2.33,2.33,0,0,0-.53-.06Z" transform="translate(0 -0.53)"/></g></g></svg>