<svg xmlns="http://www.w3.org/2000/svg" viewBox="0 0 184.4 20.16"><defs><style>.cls-1{isolation:isolate;}.cls-2{fill:#ebaaff;}.cls-3{mix-blend-mode:soft-light;}.cls-4{fill:#fff;}</style></defs><title>white-logo</title><g class="cls-1"><g id="Capa_2" data-name="Capa 2"><g id="Capa_26" data-name="Capa 26"><path class="cls-2" d="M32.93,4.51a4.94,4.94,0,0,1,2.27,1.2,7.19,7.19,0,0,1,2.27,4.54,8.94,8.94,0,0,1-8.86,9.66,10,10,0,0,1-4.29-1.05,9.3,9.3,0,0,1-4.08-3.56,8.51,8.51,0,0,1-1-2.53l.1.3A9.18,9.18,0,0,0,25.85,19a9,9,0,0,0,2.47.36,8.13,8.13,0,0,0,5.09-1.84A8.45,8.45,0,0,0,36.67,12a6.16,6.16,0,0,0-2.19-5.76,7.51,7.51,0,0,0-1.79-1.18l.24-.58M20,3.29a.5.5,0,0,1,0,.12l0-.09,0,0Zm0,.12a16.71,16.71,0,0,0-1.4,8.23,9.26,9.26,0,0,0,1.28,3.92,9.72,9.72,0,0,0,4.3,3.75,10.36,10.36,0,0,0,4.5,1.1,9.26,9.26,0,0,0,3.48-.69A9.4,9.4,0,0,0,38,10.19a7.66,7.66,0,0,0-2.43-4.84A5.49,5.49,0,0,0,32.83,4h0c-.08,0-.18,0-.2.07-.18.42-.35.86-.52,1.29l.17.09a7.26,7.26,0,0,1,1.91,1.23,5.63,5.63,0,0,1,2,5.3,8,8,0,0,1-3.07,5.18,7.62,7.62,0,0,1-4.78,1.73A8.44,8.44,0,0,1,26,18.52a8.66,8.66,0,0,1-6.19-5.62,13.27,13.27,0,0,1-.47-6.44c.15-1,.4-2,.61-3Z" transform="translate(0 -0.25)"/><path class="cls-2" d="M31,.75h0a10,10,0,0,1,4.33,1.06A10,10,0,0,1,37.9,3.56a10.08,10.08,0,0,0-4.4-2,11.71,11.71,0,0,0-2.4-.26,9,9,0,0,0-1.17.07,7.41,7.41,0,0,0-5.25,3.1,10.47,10.47,0,0,0-1.76,4.11.85.85,0,0,0,.38.92l1.06.73,1.51,1.06c-.48,1.09-1,2.2-1.45,3.33a6.11,6.11,0,0,1-2.15-3.12,7.29,7.29,0,0,1,.46-5.44A8.76,8.76,0,0,1,29.32.91,9.69,9.69,0,0,1,31,.75M24.31,14.4l.31-.71.22-.5L25.36,12a.73.73,0,0,0-.28-1q-.64-.43-1.29-.9l-.58-.4-.16-.1-.06,0-.29-.17-.27.2-.05,0-.23.17,0,.28a6.32,6.32,0,0,0,1.62,3.74l.52.58M31,.25a10.12,10.12,0,0,0-1.79.17,9.21,9.21,0,0,0-6.94,5.46,7.84,7.84,0,0,0-.49,5.8,6.57,6.57,0,0,0,2.62,3.57.36.36,0,0,0,.17.08c.07,0,.12-.06.18-.18.52-1.25,1.06-2.48,1.61-3.72a.32.32,0,0,0-.13-.47L23.58,9.11a.33.33,0,0,1-.17-.4A10.09,10.09,0,0,1,25.08,4.8,6.93,6.93,0,0,1,30,1.9a8.27,8.27,0,0,1,1.11-.07,11.25,11.25,0,0,1,2.3.25,9.15,9.15,0,0,1,7.07,5.83,14,14,0,0,1,1,5,15,15,0,0,0-.28-4.24,10.12,10.12,0,0,0-5.61-7.31A10.42,10.42,0,0,0,31,.25ZM24.17,13.49A5.82,5.82,0,0,1,22.67,10l.06,0,.2.12c.62.44,1.24.88,1.87,1.3a.26.26,0,0,1,.11.38c-.25.54-.48,1.09-.74,1.7Z" transform="translate(0 -0.25)"/><path class="cls-2" d="M31.75,7.31a3.48,3.48,0,0,1,1.44,1.12,4.28,4.28,0,0,1,.64,4.17,5.34,5.34,0,0,1-2.36,3.23,4.68,4.68,0,0,1-2.48.66,5.83,5.83,0,0,1-.59,0,5.41,5.41,0,0,1-.58-.07L29,13.7l.2.13,1.46,1a.79.79,0,0,0,.49.18.8.8,0,0,0,.57-.27,5.45,5.45,0,0,0,1.57-2.87,3.81,3.81,0,0,0-1.4-3.73l-.37-.29.24-.55m-2.68,9A4.28,4.28,0,0,0,30.61,16l.91-.33-.8-.55-.65-.45-.5-.34-.5-.35-.24.56-.45,1-.28.65.71.05h.26m2.47-9.58c-.05,0-.1,0-.13.11L30.89,8c.23.17.46.33.67.5a3.33,3.33,0,0,1,1.23,3.26,5,5,0,0,1-1.44,2.62.33.33,0,0,1-.21.11.43.43,0,0,1-.21-.08c-.63-.45-1.27-.89-1.91-1.33L28.77,13c-.56,1.27-1.1,2.52-1.67,3.84.45.06.85.13,1.25.17.21,0,.43,0,.64,0a5.24,5.24,0,0,0,2.74-.73,5.86,5.86,0,0,0,2.58-3.52,4.81,4.81,0,0,0-.72-4.61,3.92,3.92,0,0,0-1.9-1.38l-.15,0ZM29.07,15.8h-.23c.15-.37.29-.69.45-1.05l1.15.79a3.91,3.91,0,0,1-1.37.26Z" transform="translate(0 -0.25)"/><path class="cls-2" d="M28.81,4.52,28.16,6,27.3,8l-1-.67a4.66,4.66,0,0,1,2.47-2.79h0m.56-.65a1.91,1.91,0,0,0-.78.2,5.25,5.25,0,0,0-2.82,3.29.38.38,0,0,0,.14.28c.46.33.93.64,1.4,1l.22.12c.71-1.63,1.4-3.22,2.09-4.83a1,1,0,0,0-.25,0Z" transform="translate(0 -0.25)"/><g class="cls-3"><path class="cls-4" d="M0,2.07H9.37v2.1h-7v5H9.13v2.12H2.37v5.13H9.59v2.11H0Z" transform="translate(0 -0.25)"/><path class="cls-4" d="M64,14.76v2.6a12.26,12.26,0,0,1-6,1.42,9.29,9.29,0,0,1-4.7-1.11,8.17,8.17,0,0,1-3-3.07,8.28,8.28,0,0,1-1.12-4.22A8.06,8.06,0,0,1,51.7,4.31,8.82,8.82,0,0,1,58,1.85a15,15,0,0,1,5.79,1.36V5.76A11.33,11.33,0,0,0,58.16,4.1a6.56,6.56,0,0,0-4.71,1.79,6,6,0,0,0-1.88,4.49,5.87,5.87,0,0,0,1.85,4.47,6.56,6.56,0,0,0,4.72,1.75A10.66,10.66,0,0,0,64,14.76Z" transform="translate(0 -0.25)"/><path class="cls-4" d="M74.18,2.07h9.37v2.1h-7v5h6.76v2.12H76.55v5.13h7.22v2.11H74.18Z" transform="translate(0 -0.25)"/><path class="cls-4" d="M93.56,2.07h2.36V16.44h7.44v2.15h-9.8Z" transform="translate(0 -0.25)"/><path class="cls-4" d="M116.79,11.67,115,10.58a8.11,8.11,0,0,1-2.4-2,3.81,3.81,0,0,1-.72-2.3,4,4,0,0,1,1.36-3.17,5,5,0,0,1,3.51-1.22A6.63,6.63,0,0,1,120.54,3V5.7A5.49,5.49,0,0,0,116.7,4a3.17,3.17,0,0,0-1.91.54,1.63,1.63,0,0,0-.74,1.37,2.08,2.08,0,0,0,.55,1.39,6.71,6.71,0,0,0,1.76,1.36l1.81,1.07q3,1.81,3,4.6a4.22,4.22,0,0,1-1.33,3.23,4.86,4.86,0,0,1-3.46,1.24,7.24,7.24,0,0,1-4.46-1.51v-3a5.58,5.58,0,0,0,4.44,2.43,2.79,2.79,0,0,0,1.85-.62,2,2,0,0,0,.74-1.55C119,13.52,118.24,12.57,116.79,11.67Z" transform="translate(0 -0.25)"/><path class="cls-4" d="M131.08,2.07h2.37V18.59h-2.37Z" transform="translate(0 -0.25)"/><path class="cls-4" d="M152.49,1.83a8.89,8.89,0,0,1,6.38,2.43,8,8,0,0,1,2.54,6.07,7.88,7.88,0,0,1-2.57,6,9.11,9.11,0,0,1-6.48,2.4,8.6,8.6,0,0,1-6.22-2.4,8,8,0,0,1-2.49-6,8.13,8.13,0,0,1,2.5-6.12A8.76,8.76,0,0,1,152.49,1.83Zm.09,2.25a6.42,6.42,0,0,0-4.66,1.77,6.06,6.06,0,0,0-1.82,4.53,5.94,5.94,0,0,0,1.83,4.45,6.81,6.81,0,0,0,9.2,0,6,6,0,0,0,1.85-4.5,5.92,5.92,0,0,0-1.85-4.42A6.32,6.32,0,0,0,152.58,4.08Z" transform="translate(0 -0.25)"/><path class="cls-4" d="M171.66,18.59V2.07h4.14a6,6,0,0,1,4,1.24,4.18,4.18,0,0,1,1.47,3.36,4.15,4.15,0,0,1-2.79,4.07A7,7,0,0,1,180,12.16a30,30,0,0,1,2.13,3.13c.57.94,1,1.64,1.38,2.12l.88,1.18h-2.82l-.72-1.09a1.55,1.55,0,0,0-.14-.2l-.46-.65-.73-1.21-.79-1.29a12.49,12.49,0,0,0-1.35-1.62,5,5,0,0,0-1.1-.87,3.79,3.79,0,0,0-1.65-.26H174v7.19Zm3.08-14.51H174V9.29h.89a6.83,6.83,0,0,0,2.47-.3,2.35,2.35,0,0,0,1-.93,2.71,2.71,0,0,0,.37-1.42,2.48,2.48,0,0,0-.41-1.41,2.21,2.21,0,0,0-1.16-.89A8.27,8.27,0,0,0,174.74,4.08Z" transform="translate(0 -0.25)"/></g><g class="cls-3"><path class="cls-4" d="M0,2.07H9.37v2.1h-7v5H9.13v2.12H2.37v5.13H9.59v2.11H0Z" transform="translate(0 -0.25)"/><path class="cls-4" d="M64,14.76v2.6a12.26,12.26,0,0,1-6,1.42,9.29,9.29,0,0,1-4.7-1.11,8.17,8.17,0,0,1-3-3.07,8.28,8.28,0,0,1-1.12-4.22A8.06,8.06,0,0,1,51.7,4.31,8.82,8.82,0,0,1,58,1.85a15,15,0,0,1,5.79,1.36V5.76A11.33,11.33,0,0,0,58.16,4.1a6.56,6.56,0,0,0-4.71,1.79,6,6,0,0,0-1.88,4.49,5.87,5.87,0,0,0,1.85,4.47,6.56,6.56,0,0,0,4.72,1.75A10.66,10.66,0,0,0,64,14.76Z" transform="translate(0 -0.25)"/><path class="cls-4" d="M74.18,2.07h9.37v2.1h-7v5h6.76v2.12H76.55v5.13h7.22v2.11H74.18Z" transform="translate(0 -0.25)"/><path class="cls-4" d="M93.56,2.07h2.36V16.44h7.44v2.15h-9.8Z" transform="translate(0 -0.25)"/><path class="cls-4" d="M116.79,11.67,115,10.58a8.11,8.11,0,0,1-2.4-2,3.81,3.81,0,0,1-.72-2.3,4,4,0,0,1,1.36-3.17,5,5,0,0,1,3.51-1.22A6.63,6.63,0,0,1,120.54,3V5.7A5.49,5.49,0,0,0,116.7,4a3.17,3.17,0,0,0-1.91.54,1.63,1.63,0,0,0-.74,1.37,2.08,2.08,0,0,0,.55,1.39,6.71,6.71,0,0,0,1.76,1.36l1.81,1.07q3,1.81,3,4.6a4.22,4.22,0,0,1-1.33,3.23,4.86,4.86,0,0,1-3.46,1.24,7.24,7.24,0,0,1-4.46-1.51v-3a5.58,5.58,0,0,0,4.44,2.43,2.79,2.79,0,0,0,1.85-.62,2,2,0,0,0,.74-1.55C119,13.52,118.24,12.57,116.79,11.67Z" transform="translate(0 -0.25)"/><path class="cls-4" d="M131.08,2.07h2.37V18.59h-2.37Z" transform="translate(0 -0.25)"/><path class="cls-4" d="M152.49,1.83a8.89,8.89,0,0,1,6.38,2.43,8,8,0,0,1,2.54,6.07,7.88,7.88,0,0,1-2.57,6,9.11,9.11,0,0,1-6.48,2.4,8.6,8.6,0,0,1-6.22-2.4,8,8,0,0,1-2.49-6,8.13,8.13,0,0,1,2.5-6.12A8.76,8.76,0,0,1,152.49,1.83Zm.09,2.25a6.42,6.42,0,0,0-4.66,1.77,6.06,6.06,0,0,0-1.82,4.53,5.94,5.94,0,0,0,1.83,4.45,6.81,6.81,0,0,0,9.2,0,6,6,0,0,0,1.85-4.5,5.92,5.92,0,0,0-1.85-4.42A6.32,6.32,0,0,0,152.58,4.08Z" transform="translate(0 -0.25)"/><path class="cls-4" d="M171.66,18.59V2.07h4.14a6,6,0,0,1,4,1.24,4.18,4.18,0,0,1,1.47,3.36,4.15,4.15,0,0,1-2.79,4.07A7,7,0,0,1,180,12.16a30,30,0,0,1,2.13,3.13c.57.94,1,1.64,1.38,2.12l.88,1.18h-2.82l-.72-1.09a1.55,1.55,0,0,0-.14-.2l-.46-.65-.73-1.21-.79-1.29a12.49,12.49,0,0,0-1.35-1.62,5,5,0,0,0-1.1-.87,3.79,3.79,0,0,0-1.65-.26H174v7.19Zm3.08-14.51H174V9.29h.89a6.83,6.83,0,0,0,2.47-.3,2.35,2.35,0,0,0,1-.93,2.71,2.71,0,0,0,.37-1.42,2.48,2.48,0,0,0-.41-1.41,2.21,2.21,0,0,0-1.16-.89A8.27,8.27,0,0,0,174.74,4.08Z" transform="translate(0 -0.25)"/></g><g class="cls-3"><path class="cls-4" d="M0,2.07H9.37v2.1h-7v5H9.13v2.12H2.37v5.13H9.59v2.11H0Z" transform="translate(0 -0.25)"/><path class="cls-4" d="M64,14.76v2.6a12.26,12.26,0,0,1-6,1.42,9.29,9.29,0,0,1-4.7-1.11,8.17,8.17,0,0,1-3-3.07,8.28,8.28,0,0,1-1.12-4.22A8.06,8.06,0,0,1,51.7,4.31,8.82,8.82,0,0,1,58,1.85a15,15,0,0,1,5.79,1.36V5.76A11.33,11.33,0,0,0,58.16,4.1a6.56,6.56,0,0,0-4.71,1.79,6,6,0,0,0-1.88,4.49,5.87,5.87,0,0,0,1.85,4.47,6.56,6.56,0,0,0,4.72,1.75A10.66,10.66,0,0,0,64,14.76Z" transform="translate(0 -0.25)"/><path class="cls-4" d="M74.18,2.07h9.37v2.1h-7v5h6.76v2.12H76.55v5.13h7.22v2.11H74.18Z" transform="translate(0 -0.25)"/><path class="cls-4" d="M93.56,2.07h2.36V16.44h7.44v2.15h-9.8Z" transform="translate(0 -0.25)"/><path class="cls-4" d="M116.79,11.67,115,10.58a8.11,8.11,0,0,1-2.4-2,3.81,3.81,0,0,1-.72-2.3,4,4,0,0,1,1.36-3.17,5,5,0,0,1,3.51-1.22A6.63,6.63,0,0,1,120.54,3V5.7A5.49,5.49,0,0,0,116.7,4a3.17,3.17,0,0,0-1.91.54,1.63,1.63,0,0,0-.74,1.37,2.08,2.08,0,0,0,.55,1.39,6.71,6.71,0,0,0,1.76,1.36l1.81,1.07q3,1.81,3,4.6a4.22,4.22,0,0,1-1.33,3.23,4.86,4.86,0,0,1-3.46,1.24,7.24,7.24,0,0,1-4.46-1.51v-3a5.58,5.58,0,0,0,4.44,2.43,2.79,2.79,0,0,0,1.85-.62,2,2,0,0,0,.74-1.55C119,13.52,118.24,12.57,116.79,11.67Z" transform="translate(0 -0.25)"/><path class="cls-4" d="M131.08,2.07h2.37V18.59h-2.37Z" transform="translate(0 -0.25)"/><path class="cls-4" d="M152.49,1.83a8.89,8.89,0,0,1,6.38,2.43,8,8,0,0,1,2.54,6.07,7.88,7.88,0,0,1-2.57,6,9.11,9.11,0,0,1-6.48,2.4,8.6,8.6,0,0,1-6.22-2.4,8,8,0,0,1-2.49-6,8.13,8.13,0,0,1,2.5-6.12A8.76,8.76,0,0,1,152.49,1.83Zm.09,2.25a6.42,6.42,0,0,0-4.66,1.77,6.06,6.06,0,0,0-1.82,4.53,5.94,5.94,0,0,0,1.83,4.45,6.81,6.81,0,0,0,9.2,0,6,6,0,0,0,1.85-4.5,5.92,5.92,0,0,0-1.85-4.42A6.32,6.32,0,0,0,152.58,4.08Z" transform="translate(0 -0.25)"/><path class="cls-4" d="M171.66,18.59V2.07h4.14a6,6,0,0,1,4,1.24,4.18,4.18,0,0,1,1.47,3.36,4.15,4.15,0,0,1-2.79,4.07A7,7,0,0,1,180,12.16a30,30,0,0,1,2.13,3.13c.57.94,1,1.64,1.38,2.12l.88,1.18h-2.82l-.72-1.09a1.55,1.55,0,0,0-.14-.2l-.46-.65-.73-1.21-.79-1.29a12.49,12.49,0,0,0-1.35-1.62,5,5,0,0,0-1.1-.87,3.79,3.79,0,0,0-1.65-.26H174v7.19Zm3.08-14.51H174V9.29h.89a6.83,6.83,0,0,0,2.47-.3,2.35,2.35,0,0,0,1-.93,2.71,2.71,0,0,0,.37-1.42,2.48,2.48,0,0,0-.41-1.41,2.21,2.21,0,0,0-1.16-.89A8.27,8.27,0,0,0,174.74,4.08Z" transform="translate(0 -0.25)"/></g><g class="cls-3"><path class="cls-4" d="M0,2.07H9.37v2.1h-7v5H9.13v2.12H2.37v5.13H9.59v2.11H0Z" transform="translate(0 -0.25)"/><path class="cls-4" d="M64,14.76v2.6a12.26,12.26,0,0,1-6,1.42,9.29,9.29,0,0,1-4.7-1.11,8.17,8.17,0,0,1-3-3.07,8.28,8.28,0,0,1-1.12-4.22A8.06,8.06,0,0,1,51.7,4.31,8.82,8.82,0,0,1,58,1.85a15,15,0,0,1,5.79,1.36V5.76A11.33,11.33,0,0,0,58.16,4.1a6.56,6.56,0,0,0-4.71,1.79,6,6,0,0,0-1.88,4.49,5.87,5.87,0,0,0,1.85,4.47,6.56,6.56,0,0,0,4.72,1.75A10.66,10.66,0,0,0,64,14.76Z" transform="translate(0 -0.25)"/><path class="cls-4" d="M74.18,2.07h9.37v2.1h-7v5h6.76v2.12H76.55v5.13h7.22v2.11H74.18Z" transform="translate(0 -0.25)"/><path class="cls-4" d="M93.56,2.07h2.36V16.44h7.44v2.15h-9.8Z" transform="translate(0 -0.25)"/><path class="cls-4" d="M116.79,11.67,115,10.58a8.11,8.11,0,0,1-2.4-2,3.81,3.81,0,0,1-.72-2.3,4,4,0,0,1,1.36-3.17,5,5,0,0,1,3.51-1.22A6.63,6.63,0,0,1,120.54,3V5.7A5.49,5.49,0,0,0,116.7,4a3.17,3.17,0,0,0-1.91.54,1.63,1.63,0,0,0-.74,1.37,2.08,2.08,0,0,0,.55,1.39,6.71,6.71,0,0,0,1.76,1.36l1.81,1.07q3,1.81,3,4.6a4.22,4.22,0,0,1-1.33,3.23,4.86,4.86,0,0,1-3.46,1.24,7.24,7.24,0,0,1-4.46-1.51v-3a5.58,5.58,0,0,0,4.44,2.43,2.79,2.79,0,0,0,1.85-.62,2,2,0,0,0,.74-1.55C119,13.52,118.24,12.57,116.79,11.67Z" transform="translate(0 -0.25)"/><path class="cls-4" d="M131.08,2.07h2.37V18.59h-2.37Z" transform="translate(0 -0.25)"/><path class="cls-4" d="M152.49,1.83a8.89,8.89,0,0,1,6.38,2.43,8,8,0,0,1,2.54,6.07,7.88,7.88,0,0,1-2.57,6,9.11,9.11,0,0,1-6.48,2.4,8.6,8.6,0,0,1-6.22-2.4,8,8,0,0,1-2.49-6,8.13,8.13,0,0,1,2.5-6.12A8.76,8.76,0,0,1,152.49,1.83Zm.09,2.25a6.42,6.42,0,0,0-4.66,1.77,6.06,6.06,0,0,0-1.82,4.53,5.94,5.94,0,0,0,1.83,4.45,6.81,6.81,0,0,0,9.2,0,6,6,0,0,0,1.85-4.5,5.92,5.92,0,0,0-1.85-4.42A6.32,6.32,0,0,0,152.58,4.08Z" transform="translate(0 -0.25)"/><path class="cls-4" d="M171.66,18.59V2.07h4.14a6,6,0,0,1,4,1.24,4.18,4.18,0,0,1,1.47,3.36,4.15,4.15,0,0,1-2.79,4.07A7,7,0,0,1,180,12.16a30,30,0,0,1,2.13,3.13c.57.94,1,1.64,1.38,2.12l.88,1.18h-2.82l-.72-1.09a1.55,1.55,0,0,0-.14-.2l-.46-.65-.73-1.21-.79-1.29a12.49,12.49,0,0,0-1.35-1.62,5,5,0,0,0-1.1-.87,3.79,3.79,0,0,0-1.65-.26H174v7.19Zm3.08-14.51H174V9.29h.89a6.83,6.83,0,0,0,2.47-.3,2.35,2.35,0,0,0,1-.93,2.71,2.71,0,0,0,.37-1.42,2.48,2.48,0,0,0-.41-1.41,2.21,2.21,0,0,0-1.16-.89A8.27,8.27,0,0,0,174.74,4.08Z" transform="translate(0 -0.25)"/></g></g></g></g></svg>